<mxfile host="app.diagrams.net" agent="Mozilla/5.0 (Windows NT 10.0; Win64; x64; rv:139.0) Gecko/20100101 Firefox/139.0" version="27.1.6">
  <diagram name="Seite-1" id="jC0z1F6yo6HCvd-8Z6JM">
    <mxGraphModel dx="1640" dy="653" grid="1" gridSize="10" guides="1" tooltips="1" connect="1" arrows="1" fold="1" page="0" pageScale="1" pageWidth="827" pageHeight="1169" math="0" shadow="0">
      <root>
        <mxCell id="0" />
        <mxCell id="1" parent="0" />
        <mxCell id="LTTtsXVFkvLHCN3D1B8W-2" value="&lt;div&gt;&lt;b&gt;Arduino UNO&lt;/b&gt;&lt;/div&gt;" style="rounded=0;whiteSpace=wrap;html=1;verticalAlign=top;" parent="1" vertex="1">
          <mxGeometry x="360" y="240" width="160" height="360" as="geometry" />
        </mxCell>
        <mxCell id="LTTtsXVFkvLHCN3D1B8W-4" value="" style="endArrow=none;html=1;rounded=0;align=right;labelPosition=left;verticalLabelPosition=middle;verticalAlign=middle;" parent="1" edge="1">
          <mxGeometry width="50" height="50" relative="1" as="geometry">
            <mxPoint x="500" y="580" as="sourcePoint" />
            <mxPoint x="540" y="580" as="targetPoint" />
          </mxGeometry>
        </mxCell>
        <mxCell id="LTTtsXVFkvLHCN3D1B8W-10" value="" style="endArrow=none;html=1;rounded=0;align=right;labelPosition=left;verticalLabelPosition=middle;verticalAlign=middle;" parent="1" edge="1">
          <mxGeometry width="50" height="50" relative="1" as="geometry">
            <mxPoint x="500" y="560" as="sourcePoint" />
            <mxPoint x="540" y="560" as="targetPoint" />
          </mxGeometry>
        </mxCell>
        <mxCell id="LTTtsXVFkvLHCN3D1B8W-11" value="" style="endArrow=none;html=1;rounded=0;align=right;labelPosition=left;verticalLabelPosition=middle;verticalAlign=middle;" parent="1" edge="1">
          <mxGeometry width="50" height="50" relative="1" as="geometry">
            <mxPoint x="500" y="540" as="sourcePoint" />
            <mxPoint x="540" y="540" as="targetPoint" />
          </mxGeometry>
        </mxCell>
        <mxCell id="LTTtsXVFkvLHCN3D1B8W-12" value="" style="endArrow=none;html=1;rounded=0;align=right;labelPosition=left;verticalLabelPosition=middle;verticalAlign=middle;" parent="1" edge="1">
          <mxGeometry width="50" height="50" relative="1" as="geometry">
            <mxPoint x="500" y="520" as="sourcePoint" />
            <mxPoint x="540" y="520" as="targetPoint" />
          </mxGeometry>
        </mxCell>
        <mxCell id="LTTtsXVFkvLHCN3D1B8W-13" value="" style="endArrow=none;html=1;rounded=0;align=right;labelPosition=left;verticalLabelPosition=middle;verticalAlign=middle;" parent="1" edge="1">
          <mxGeometry width="50" height="50" relative="1" as="geometry">
            <mxPoint x="500" y="500" as="sourcePoint" />
            <mxPoint x="540" y="500" as="targetPoint" />
          </mxGeometry>
        </mxCell>
        <mxCell id="LTTtsXVFkvLHCN3D1B8W-14" value="" style="endArrow=none;html=1;rounded=0;align=right;labelPosition=left;verticalLabelPosition=middle;verticalAlign=middle;" parent="1" edge="1">
          <mxGeometry width="50" height="50" relative="1" as="geometry">
            <mxPoint x="500" y="480" as="sourcePoint" />
            <mxPoint x="540" y="480" as="targetPoint" />
          </mxGeometry>
        </mxCell>
        <mxCell id="LTTtsXVFkvLHCN3D1B8W-15" value="" style="endArrow=none;html=1;rounded=0;align=right;labelPosition=left;verticalLabelPosition=middle;verticalAlign=middle;" parent="1" edge="1">
          <mxGeometry width="50" height="50" relative="1" as="geometry">
            <mxPoint x="500" y="460" as="sourcePoint" />
            <mxPoint x="540" y="460" as="targetPoint" />
          </mxGeometry>
        </mxCell>
        <mxCell id="LTTtsXVFkvLHCN3D1B8W-16" value="" style="endArrow=none;html=1;rounded=0;align=right;labelPosition=left;verticalLabelPosition=middle;verticalAlign=middle;" parent="1" edge="1">
          <mxGeometry width="50" height="50" relative="1" as="geometry">
            <mxPoint x="500" y="440" as="sourcePoint" />
            <mxPoint x="540" y="440" as="targetPoint" />
          </mxGeometry>
        </mxCell>
        <mxCell id="LTTtsXVFkvLHCN3D1B8W-17" value="" style="endArrow=none;html=1;rounded=0;align=right;labelPosition=left;verticalLabelPosition=middle;verticalAlign=middle;" parent="1" edge="1">
          <mxGeometry width="50" height="50" relative="1" as="geometry">
            <mxPoint x="500" y="420" as="sourcePoint" />
            <mxPoint x="540" y="420" as="targetPoint" />
          </mxGeometry>
        </mxCell>
        <mxCell id="LTTtsXVFkvLHCN3D1B8W-18" value="" style="endArrow=none;html=1;rounded=0;align=right;labelPosition=left;verticalLabelPosition=middle;verticalAlign=middle;" parent="1" edge="1">
          <mxGeometry width="50" height="50" relative="1" as="geometry">
            <mxPoint x="500" y="400" as="sourcePoint" />
            <mxPoint x="540" y="400" as="targetPoint" />
          </mxGeometry>
        </mxCell>
        <mxCell id="LTTtsXVFkvLHCN3D1B8W-19" value="" style="endArrow=none;html=1;rounded=0;align=right;labelPosition=left;verticalLabelPosition=middle;verticalAlign=middle;" parent="1" edge="1">
          <mxGeometry width="50" height="50" relative="1" as="geometry">
            <mxPoint x="500" y="380" as="sourcePoint" />
            <mxPoint x="540" y="380" as="targetPoint" />
          </mxGeometry>
        </mxCell>
        <mxCell id="LTTtsXVFkvLHCN3D1B8W-20" value="" style="endArrow=none;html=1;rounded=0;align=right;labelPosition=left;verticalLabelPosition=middle;verticalAlign=middle;" parent="1" edge="1">
          <mxGeometry width="50" height="50" relative="1" as="geometry">
            <mxPoint x="500" y="360" as="sourcePoint" />
            <mxPoint x="540" y="360" as="targetPoint" />
          </mxGeometry>
        </mxCell>
        <mxCell id="LTTtsXVFkvLHCN3D1B8W-21" value="RX / 0" style="text;html=1;align=right;verticalAlign=middle;whiteSpace=wrap;rounded=0;" parent="1" vertex="1">
          <mxGeometry x="450" y="570" width="40" height="20" as="geometry" />
        </mxCell>
        <mxCell id="LTTtsXVFkvLHCN3D1B8W-22" value="TX / 1" style="text;html=1;align=right;verticalAlign=middle;whiteSpace=wrap;rounded=0;" parent="1" vertex="1">
          <mxGeometry x="450" y="550" width="40" height="20" as="geometry" />
        </mxCell>
        <mxCell id="LTTtsXVFkvLHCN3D1B8W-23" value="2" style="text;html=1;align=right;verticalAlign=middle;whiteSpace=wrap;rounded=0;" parent="1" vertex="1">
          <mxGeometry x="450" y="530" width="40" height="20" as="geometry" />
        </mxCell>
        <mxCell id="LTTtsXVFkvLHCN3D1B8W-24" value="3" style="text;html=1;align=right;verticalAlign=middle;whiteSpace=wrap;rounded=0;" parent="1" vertex="1">
          <mxGeometry x="450" y="510" width="40" height="20" as="geometry" />
        </mxCell>
        <mxCell id="LTTtsXVFkvLHCN3D1B8W-25" value="4" style="text;html=1;align=right;verticalAlign=middle;whiteSpace=wrap;rounded=0;" parent="1" vertex="1">
          <mxGeometry x="450" y="490" width="40" height="20" as="geometry" />
        </mxCell>
        <mxCell id="LTTtsXVFkvLHCN3D1B8W-26" value="5" style="text;html=1;align=right;verticalAlign=middle;whiteSpace=wrap;rounded=0;" parent="1" vertex="1">
          <mxGeometry x="450" y="470" width="40" height="20" as="geometry" />
        </mxCell>
        <mxCell id="LTTtsXVFkvLHCN3D1B8W-27" value="6" style="text;html=1;align=right;verticalAlign=middle;whiteSpace=wrap;rounded=0;" parent="1" vertex="1">
          <mxGeometry x="450" y="450" width="40" height="20" as="geometry" />
        </mxCell>
        <mxCell id="LTTtsXVFkvLHCN3D1B8W-28" value="7" style="text;html=1;align=right;verticalAlign=middle;whiteSpace=wrap;rounded=0;" parent="1" vertex="1">
          <mxGeometry x="450" y="430" width="40" height="20" as="geometry" />
        </mxCell>
        <mxCell id="LTTtsXVFkvLHCN3D1B8W-29" value="8" style="text;html=1;align=right;verticalAlign=middle;whiteSpace=wrap;rounded=0;" parent="1" vertex="1">
          <mxGeometry x="450" y="410" width="40" height="20" as="geometry" />
        </mxCell>
        <mxCell id="LTTtsXVFkvLHCN3D1B8W-30" value="9" style="text;html=1;align=right;verticalAlign=middle;whiteSpace=wrap;rounded=0;" parent="1" vertex="1">
          <mxGeometry x="450" y="390" width="40" height="20" as="geometry" />
        </mxCell>
        <mxCell id="LTTtsXVFkvLHCN3D1B8W-31" value="10" style="text;html=1;align=right;verticalAlign=middle;whiteSpace=wrap;rounded=0;" parent="1" vertex="1">
          <mxGeometry x="450" y="370" width="40" height="20" as="geometry" />
        </mxCell>
        <mxCell id="LTTtsXVFkvLHCN3D1B8W-32" value="11" style="text;html=1;align=right;verticalAlign=middle;whiteSpace=wrap;rounded=0;" parent="1" vertex="1">
          <mxGeometry x="450" y="350" width="40" height="20" as="geometry" />
        </mxCell>
        <mxCell id="LTTtsXVFkvLHCN3D1B8W-34" value="" style="endArrow=none;html=1;rounded=0;align=right;labelPosition=left;verticalLabelPosition=middle;verticalAlign=middle;" parent="1" edge="1">
          <mxGeometry width="50" height="50" relative="1" as="geometry">
            <mxPoint x="500" y="340" as="sourcePoint" />
            <mxPoint x="540" y="340" as="targetPoint" />
          </mxGeometry>
        </mxCell>
        <mxCell id="LTTtsXVFkvLHCN3D1B8W-35" value="" style="endArrow=none;html=1;rounded=0;align=right;labelPosition=left;verticalLabelPosition=middle;verticalAlign=middle;" parent="1" edge="1">
          <mxGeometry width="50" height="50" relative="1" as="geometry">
            <mxPoint x="500" y="320" as="sourcePoint" />
            <mxPoint x="540" y="320" as="targetPoint" />
          </mxGeometry>
        </mxCell>
        <mxCell id="LTTtsXVFkvLHCN3D1B8W-36" value="12" style="text;html=1;align=right;verticalAlign=middle;whiteSpace=wrap;rounded=0;" parent="1" vertex="1">
          <mxGeometry x="450" y="330" width="40" height="20" as="geometry" />
        </mxCell>
        <mxCell id="LTTtsXVFkvLHCN3D1B8W-37" value="13" style="text;html=1;align=right;verticalAlign=middle;whiteSpace=wrap;rounded=0;" parent="1" vertex="1">
          <mxGeometry x="450" y="310" width="40" height="20" as="geometry" />
        </mxCell>
        <mxCell id="LTTtsXVFkvLHCN3D1B8W-38" value="" style="endArrow=none;html=1;rounded=0;align=right;labelPosition=left;verticalLabelPosition=middle;verticalAlign=middle;" parent="1" edge="1">
          <mxGeometry width="50" height="50" relative="1" as="geometry">
            <mxPoint x="340" y="580" as="sourcePoint" />
            <mxPoint x="380" y="580" as="targetPoint" />
          </mxGeometry>
        </mxCell>
        <mxCell id="LTTtsXVFkvLHCN3D1B8W-39" value="" style="endArrow=none;html=1;rounded=0;align=right;labelPosition=left;verticalLabelPosition=middle;verticalAlign=middle;" parent="1" edge="1">
          <mxGeometry width="50" height="50" relative="1" as="geometry">
            <mxPoint x="340" y="560" as="sourcePoint" />
            <mxPoint x="380" y="560" as="targetPoint" />
          </mxGeometry>
        </mxCell>
        <mxCell id="LTTtsXVFkvLHCN3D1B8W-40" value="" style="endArrow=none;html=1;rounded=0;align=right;labelPosition=left;verticalLabelPosition=middle;verticalAlign=middle;" parent="1" edge="1">
          <mxGeometry width="50" height="50" relative="1" as="geometry">
            <mxPoint x="340" y="540" as="sourcePoint" />
            <mxPoint x="380" y="540" as="targetPoint" />
          </mxGeometry>
        </mxCell>
        <mxCell id="LTTtsXVFkvLHCN3D1B8W-41" value="" style="endArrow=none;html=1;rounded=0;align=right;labelPosition=left;verticalLabelPosition=middle;verticalAlign=middle;" parent="1" edge="1">
          <mxGeometry width="50" height="50" relative="1" as="geometry">
            <mxPoint x="340" y="520" as="sourcePoint" />
            <mxPoint x="380" y="520" as="targetPoint" />
          </mxGeometry>
        </mxCell>
        <mxCell id="LTTtsXVFkvLHCN3D1B8W-42" value="" style="endArrow=none;html=1;rounded=0;align=right;labelPosition=left;verticalLabelPosition=middle;verticalAlign=middle;" parent="1" edge="1">
          <mxGeometry width="50" height="50" relative="1" as="geometry">
            <mxPoint x="340" y="500" as="sourcePoint" />
            <mxPoint x="380" y="500" as="targetPoint" />
          </mxGeometry>
        </mxCell>
        <mxCell id="LTTtsXVFkvLHCN3D1B8W-43" value="" style="endArrow=none;html=1;rounded=0;align=right;labelPosition=left;verticalLabelPosition=middle;verticalAlign=middle;" parent="1" edge="1">
          <mxGeometry width="50" height="50" relative="1" as="geometry">
            <mxPoint x="340" y="480" as="sourcePoint" />
            <mxPoint x="380" y="480" as="targetPoint" />
          </mxGeometry>
        </mxCell>
        <mxCell id="LTTtsXVFkvLHCN3D1B8W-45" value="" style="endArrow=none;html=1;rounded=0;align=right;labelPosition=left;verticalLabelPosition=middle;verticalAlign=middle;" parent="1" edge="1">
          <mxGeometry width="50" height="50" relative="1" as="geometry">
            <mxPoint x="340" y="440" as="sourcePoint" />
            <mxPoint x="380" y="440" as="targetPoint" />
          </mxGeometry>
        </mxCell>
        <mxCell id="LTTtsXVFkvLHCN3D1B8W-46" value="" style="endArrow=none;html=1;rounded=0;align=right;labelPosition=left;verticalLabelPosition=middle;verticalAlign=middle;" parent="1" edge="1">
          <mxGeometry width="50" height="50" relative="1" as="geometry">
            <mxPoint x="340" y="420" as="sourcePoint" />
            <mxPoint x="380" y="420" as="targetPoint" />
          </mxGeometry>
        </mxCell>
        <mxCell id="LTTtsXVFkvLHCN3D1B8W-47" value="" style="endArrow=none;html=1;rounded=0;align=right;labelPosition=left;verticalLabelPosition=middle;verticalAlign=middle;" parent="1" edge="1">
          <mxGeometry width="50" height="50" relative="1" as="geometry">
            <mxPoint x="340" y="400" as="sourcePoint" />
            <mxPoint x="380" y="400" as="targetPoint" />
          </mxGeometry>
        </mxCell>
        <mxCell id="LTTtsXVFkvLHCN3D1B8W-48" value="" style="endArrow=none;html=1;rounded=0;align=right;labelPosition=left;verticalLabelPosition=middle;verticalAlign=middle;" parent="1" edge="1">
          <mxGeometry width="50" height="50" relative="1" as="geometry">
            <mxPoint x="340" y="380" as="sourcePoint" />
            <mxPoint x="380" y="380" as="targetPoint" />
          </mxGeometry>
        </mxCell>
        <mxCell id="LTTtsXVFkvLHCN3D1B8W-49" value="" style="endArrow=none;html=1;rounded=0;align=right;labelPosition=left;verticalLabelPosition=middle;verticalAlign=middle;" parent="1" edge="1">
          <mxGeometry width="50" height="50" relative="1" as="geometry">
            <mxPoint x="340" y="360" as="sourcePoint" />
            <mxPoint x="380" y="360" as="targetPoint" />
          </mxGeometry>
        </mxCell>
        <mxCell id="LTTtsXVFkvLHCN3D1B8W-50" value="A5" style="text;html=1;align=left;verticalAlign=middle;whiteSpace=wrap;rounded=0;" parent="1" vertex="1">
          <mxGeometry x="390" y="570" width="40" height="20" as="geometry" />
        </mxCell>
        <mxCell id="LTTtsXVFkvLHCN3D1B8W-51" value="A4" style="text;html=1;align=left;verticalAlign=middle;whiteSpace=wrap;rounded=0;" parent="1" vertex="1">
          <mxGeometry x="390" y="550" width="40" height="20" as="geometry" />
        </mxCell>
        <mxCell id="LTTtsXVFkvLHCN3D1B8W-52" value="A3" style="text;html=1;align=left;verticalAlign=middle;whiteSpace=wrap;rounded=0;" parent="1" vertex="1">
          <mxGeometry x="390" y="530" width="40" height="20" as="geometry" />
        </mxCell>
        <mxCell id="LTTtsXVFkvLHCN3D1B8W-53" value="A2" style="text;html=1;align=left;verticalAlign=middle;whiteSpace=wrap;rounded=0;" parent="1" vertex="1">
          <mxGeometry x="390" y="510" width="40" height="20" as="geometry" />
        </mxCell>
        <mxCell id="LTTtsXVFkvLHCN3D1B8W-54" value="A1" style="text;html=1;align=left;verticalAlign=middle;whiteSpace=wrap;rounded=0;" parent="1" vertex="1">
          <mxGeometry x="390" y="490" width="40" height="20" as="geometry" />
        </mxCell>
        <mxCell id="LTTtsXVFkvLHCN3D1B8W-55" value="A0" style="text;html=1;align=left;verticalAlign=middle;whiteSpace=wrap;rounded=0;" parent="1" vertex="1">
          <mxGeometry x="390" y="470" width="40" height="20" as="geometry" />
        </mxCell>
        <mxCell id="LTTtsXVFkvLHCN3D1B8W-57" value="Vin" style="text;html=1;align=left;verticalAlign=middle;whiteSpace=wrap;rounded=0;" parent="1" vertex="1">
          <mxGeometry x="390" y="430" width="40" height="20" as="geometry" />
        </mxCell>
        <mxCell id="LTTtsXVFkvLHCN3D1B8W-58" value="GND" style="text;html=1;align=left;verticalAlign=middle;whiteSpace=wrap;rounded=0;" parent="1" vertex="1">
          <mxGeometry x="390" y="410" width="40" height="20" as="geometry" />
        </mxCell>
        <mxCell id="LTTtsXVFkvLHCN3D1B8W-59" value="GND" style="text;html=1;align=left;verticalAlign=middle;whiteSpace=wrap;rounded=0;" parent="1" vertex="1">
          <mxGeometry x="390" y="390" width="40" height="20" as="geometry" />
        </mxCell>
        <mxCell id="LTTtsXVFkvLHCN3D1B8W-60" value="5V" style="text;html=1;align=left;verticalAlign=middle;whiteSpace=wrap;rounded=0;" parent="1" vertex="1">
          <mxGeometry x="390" y="370" width="40" height="20" as="geometry" />
        </mxCell>
        <mxCell id="LTTtsXVFkvLHCN3D1B8W-61" value="3.3V" style="text;html=1;align=left;verticalAlign=middle;whiteSpace=wrap;rounded=0;" parent="1" vertex="1">
          <mxGeometry x="390" y="350" width="40" height="20" as="geometry" />
        </mxCell>
        <mxCell id="LTTtsXVFkvLHCN3D1B8W-62" value="" style="endArrow=none;html=1;rounded=0;align=right;labelPosition=left;verticalLabelPosition=middle;verticalAlign=middle;" parent="1" edge="1">
          <mxGeometry width="50" height="50" relative="1" as="geometry">
            <mxPoint x="340" y="340" as="sourcePoint" />
            <mxPoint x="380" y="340" as="targetPoint" />
          </mxGeometry>
        </mxCell>
        <mxCell id="LTTtsXVFkvLHCN3D1B8W-64" value="Reset" style="text;html=1;align=left;verticalAlign=middle;whiteSpace=wrap;rounded=0;" parent="1" vertex="1">
          <mxGeometry x="390" y="330" width="40" height="20" as="geometry" />
        </mxCell>
        <mxCell id="LTTtsXVFkvLHCN3D1B8W-67" value="" style="pointerEvents=1;fillColor=#fff2cc;verticalLabelPosition=bottom;shadow=0;dashed=0;align=center;html=1;verticalAlign=top;shape=mxgraph.electrical.diodes.diode;strokeColor=#d6b656;" parent="1" vertex="1">
          <mxGeometry x="600" y="450" width="40" height="20" as="geometry" />
        </mxCell>
        <mxCell id="LTTtsXVFkvLHCN3D1B8W-68" value="" style="pointerEvents=1;fillColor=#fff2cc;verticalLabelPosition=bottom;shadow=0;dashed=0;align=center;html=1;verticalAlign=top;shape=mxgraph.electrical.diodes.diode;strokeColor=#d6b656;" parent="1" vertex="1">
          <mxGeometry x="600" y="490" width="40" height="20" as="geometry" />
        </mxCell>
        <mxCell id="LTTtsXVFkvLHCN3D1B8W-69" value="" style="pointerEvents=1;fillColor=#fff2cc;verticalLabelPosition=bottom;shadow=0;dashed=0;align=center;html=1;verticalAlign=top;shape=mxgraph.electrical.diodes.diode;strokeColor=#d6b656;" parent="1" vertex="1">
          <mxGeometry x="600" y="510" width="40" height="20" as="geometry" />
        </mxCell>
        <mxCell id="LTTtsXVFkvLHCN3D1B8W-72" value="" style="endArrow=none;html=1;rounded=0;align=right;labelPosition=left;verticalLabelPosition=middle;verticalAlign=middle;" parent="1" edge="1">
          <mxGeometry width="50" height="50" relative="1" as="geometry">
            <mxPoint x="500" y="300" as="sourcePoint" />
            <mxPoint x="540" y="300" as="targetPoint" />
          </mxGeometry>
        </mxCell>
        <mxCell id="LTTtsXVFkvLHCN3D1B8W-73" value="GND" style="text;html=1;align=right;verticalAlign=middle;whiteSpace=wrap;rounded=0;" parent="1" vertex="1">
          <mxGeometry x="450" y="290" width="40" height="20" as="geometry" />
        </mxCell>
        <mxCell id="LTTtsXVFkvLHCN3D1B8W-74" value="" style="pointerEvents=1;fillColor=#fff2cc;verticalLabelPosition=bottom;shadow=0;dashed=0;align=center;html=1;verticalAlign=top;shape=mxgraph.electrical.diodes.diode;strokeColor=#d6b656;" parent="1" vertex="1">
          <mxGeometry x="600" y="470" width="40" height="20" as="geometry" />
        </mxCell>
        <mxCell id="LTTtsXVFkvLHCN3D1B8W-88" style="edgeStyle=orthogonalEdgeStyle;rounded=0;orthogonalLoop=1;jettySize=auto;html=1;endArrow=none;startFill=0;" parent="1" source="LTTtsXVFkvLHCN3D1B8W-75" edge="1">
          <mxGeometry relative="1" as="geometry">
            <mxPoint x="540" y="460" as="targetPoint" />
          </mxGeometry>
        </mxCell>
        <mxCell id="LTTtsXVFkvLHCN3D1B8W-75" value="220" style="pointerEvents=1;verticalLabelPosition=middle;shadow=0;dashed=0;align=center;html=1;verticalAlign=middle;shape=mxgraph.electrical.resistors.resistor_1;labelPosition=center;fontSize=7;" parent="1" vertex="1">
          <mxGeometry x="560" y="455" width="40" height="10" as="geometry" />
        </mxCell>
        <mxCell id="LTTtsXVFkvLHCN3D1B8W-89" style="edgeStyle=orthogonalEdgeStyle;rounded=0;orthogonalLoop=1;jettySize=auto;html=1;endArrow=none;startFill=0;" parent="1" source="LTTtsXVFkvLHCN3D1B8W-76" edge="1">
          <mxGeometry relative="1" as="geometry">
            <mxPoint x="540" y="480" as="targetPoint" />
          </mxGeometry>
        </mxCell>
        <mxCell id="LTTtsXVFkvLHCN3D1B8W-76" value="220" style="pointerEvents=1;verticalLabelPosition=middle;shadow=0;dashed=0;align=center;html=1;verticalAlign=middle;shape=mxgraph.electrical.resistors.resistor_1;labelPosition=center;fontSize=7;" parent="1" vertex="1">
          <mxGeometry x="560" y="475" width="40" height="10" as="geometry" />
        </mxCell>
        <mxCell id="LTTtsXVFkvLHCN3D1B8W-90" style="edgeStyle=orthogonalEdgeStyle;rounded=0;orthogonalLoop=1;jettySize=auto;html=1;endArrow=none;startFill=0;" parent="1" source="LTTtsXVFkvLHCN3D1B8W-77" edge="1">
          <mxGeometry relative="1" as="geometry">
            <mxPoint x="540" y="500" as="targetPoint" />
          </mxGeometry>
        </mxCell>
        <mxCell id="LTTtsXVFkvLHCN3D1B8W-77" value="220" style="pointerEvents=1;verticalLabelPosition=middle;shadow=0;dashed=0;align=center;html=1;verticalAlign=middle;shape=mxgraph.electrical.resistors.resistor_1;labelPosition=center;fontSize=7;" parent="1" vertex="1">
          <mxGeometry x="560" y="495" width="40" height="10" as="geometry" />
        </mxCell>
        <mxCell id="LTTtsXVFkvLHCN3D1B8W-91" style="edgeStyle=orthogonalEdgeStyle;rounded=0;orthogonalLoop=1;jettySize=auto;html=1;endArrow=none;startFill=0;" parent="1" source="LTTtsXVFkvLHCN3D1B8W-78" edge="1">
          <mxGeometry relative="1" as="geometry">
            <mxPoint x="540" y="520" as="targetPoint" />
          </mxGeometry>
        </mxCell>
        <mxCell id="LTTtsXVFkvLHCN3D1B8W-78" value="220" style="pointerEvents=1;verticalLabelPosition=middle;shadow=0;dashed=0;align=center;html=1;verticalAlign=middle;shape=mxgraph.electrical.resistors.resistor_1;labelPosition=center;fontSize=7;" parent="1" vertex="1">
          <mxGeometry x="560" y="515" width="40" height="10" as="geometry" />
        </mxCell>
        <mxCell id="LTTtsXVFkvLHCN3D1B8W-86" style="edgeStyle=orthogonalEdgeStyle;rounded=0;orthogonalLoop=1;jettySize=auto;html=1;endArrow=none;startFill=0;" parent="1" source="LTTtsXVFkvLHCN3D1B8W-81" edge="1">
          <mxGeometry relative="1" as="geometry">
            <mxPoint x="540" y="440" as="targetPoint" />
            <Array as="points">
              <mxPoint x="540" y="440" />
            </Array>
          </mxGeometry>
        </mxCell>
        <mxCell id="LTTtsXVFkvLHCN3D1B8W-81" value="220" style="pointerEvents=1;verticalLabelPosition=middle;shadow=0;dashed=0;align=center;html=1;verticalAlign=middle;shape=mxgraph.electrical.resistors.resistor_1;labelPosition=center;fontSize=7;" parent="1" vertex="1">
          <mxGeometry x="560" y="435" width="40" height="10" as="geometry" />
        </mxCell>
        <mxCell id="LTTtsXVFkvLHCN3D1B8W-82" value="" style="pointerEvents=1;fillColor=#d5e8d4;verticalLabelPosition=bottom;shadow=0;dashed=0;align=center;html=1;verticalAlign=top;shape=mxgraph.electrical.diodes.diode;strokeColor=#82b366;" parent="1" vertex="1">
          <mxGeometry x="600" y="430" width="40" height="20" as="geometry" />
        </mxCell>
        <mxCell id="LTTtsXVFkvLHCN3D1B8W-87" style="edgeStyle=orthogonalEdgeStyle;rounded=0;orthogonalLoop=1;jettySize=auto;html=1;endArrow=none;startFill=0;" parent="1" source="LTTtsXVFkvLHCN3D1B8W-83" edge="1">
          <mxGeometry relative="1" as="geometry">
            <mxPoint x="540" y="420" as="targetPoint" />
            <Array as="points">
              <mxPoint x="570" y="420" />
              <mxPoint x="570" y="420" />
            </Array>
          </mxGeometry>
        </mxCell>
        <mxCell id="LTTtsXVFkvLHCN3D1B8W-83" value="220" style="pointerEvents=1;verticalLabelPosition=middle;shadow=0;dashed=0;align=center;html=1;verticalAlign=middle;shape=mxgraph.electrical.resistors.resistor_1;labelPosition=center;fontSize=7;" parent="1" vertex="1">
          <mxGeometry x="560" y="415" width="40" height="10" as="geometry" />
        </mxCell>
        <mxCell id="LTTtsXVFkvLHCN3D1B8W-84" value="" style="pointerEvents=1;fillColor=#f8cecc;verticalLabelPosition=bottom;shadow=0;dashed=0;align=center;html=1;verticalAlign=top;shape=mxgraph.electrical.diodes.diode;strokeColor=#b85450;" parent="1" vertex="1">
          <mxGeometry x="600" y="410" width="40" height="20" as="geometry" />
        </mxCell>
        <mxCell id="5yp8rKbDOKA8DRxwV9Yd-14" style="edgeStyle=none;rounded=0;orthogonalLoop=1;jettySize=auto;html=1;exitX=1;exitY=0.25;exitDx=0;exitDy=0;exitPerimeter=0;endArrow=none;startFill=0;" edge="1" parent="1" source="LTTtsXVFkvLHCN3D1B8W-93">
          <mxGeometry relative="1" as="geometry">
            <mxPoint x="265" y="760" as="targetPoint" />
          </mxGeometry>
        </mxCell>
        <mxCell id="5yp8rKbDOKA8DRxwV9Yd-15" style="edgeStyle=none;rounded=0;orthogonalLoop=1;jettySize=auto;html=1;exitX=0;exitY=0.25;exitDx=0;exitDy=0;exitPerimeter=0;endArrow=none;startFill=0;" edge="1" parent="1" source="LTTtsXVFkvLHCN3D1B8W-93">
          <mxGeometry relative="1" as="geometry">
            <mxPoint x="265" y="200" as="targetPoint" />
          </mxGeometry>
        </mxCell>
        <mxCell id="5yp8rKbDOKA8DRxwV9Yd-16" style="edgeStyle=none;rounded=0;orthogonalLoop=1;jettySize=auto;html=1;exitX=0.5;exitY=1;exitDx=0;exitDy=0;exitPerimeter=0;endArrow=none;startFill=0;" edge="1" parent="1" source="LTTtsXVFkvLHCN3D1B8W-93">
          <mxGeometry relative="1" as="geometry">
            <mxPoint x="340" y="480.33333333333337" as="targetPoint" />
          </mxGeometry>
        </mxCell>
        <mxCell id="LTTtsXVFkvLHCN3D1B8W-93" value="" style="pointerEvents=1;verticalLabelPosition=bottom;shadow=0;dashed=0;align=center;html=1;verticalAlign=top;shape=mxgraph.electrical.resistors.potentiometer_1;direction=north;" parent="1" vertex="1">
          <mxGeometry x="260" y="460" width="20" height="40" as="geometry" />
        </mxCell>
        <mxCell id="5yp8rKbDOKA8DRxwV9Yd-1" value="Servo" style="whiteSpace=wrap;html=1;aspect=fixed;verticalAlign=top;fontStyle=1" vertex="1" parent="1">
          <mxGeometry x="40" y="470" width="80" height="80" as="geometry" />
        </mxCell>
        <mxCell id="5yp8rKbDOKA8DRxwV9Yd-6" value="" style="endArrow=oval;html=1;rounded=0;align=right;labelPosition=left;verticalLabelPosition=middle;verticalAlign=middle;endFill=1;" edge="1" parent="1">
          <mxGeometry width="50" height="50" relative="1" as="geometry">
            <mxPoint x="100" y="540" as="sourcePoint" />
            <mxPoint x="160" y="540" as="targetPoint" />
          </mxGeometry>
        </mxCell>
        <mxCell id="5yp8rKbDOKA8DRxwV9Yd-7" value="" style="endArrow=oval;html=1;rounded=0;align=right;labelPosition=left;verticalLabelPosition=middle;verticalAlign=middle;endFill=1;" edge="1" parent="1">
          <mxGeometry width="50" height="50" relative="1" as="geometry">
            <mxPoint x="100" y="520" as="sourcePoint" />
            <mxPoint x="180" y="520" as="targetPoint" />
          </mxGeometry>
        </mxCell>
        <mxCell id="5yp8rKbDOKA8DRxwV9Yd-8" value="-" style="text;html=1;align=right;verticalAlign=middle;whiteSpace=wrap;rounded=0;" vertex="1" parent="1">
          <mxGeometry x="50" y="528" width="40" height="20" as="geometry" />
        </mxCell>
        <mxCell id="5yp8rKbDOKA8DRxwV9Yd-9" value="+" style="text;html=1;align=right;verticalAlign=middle;whiteSpace=wrap;rounded=0;" vertex="1" parent="1">
          <mxGeometry x="50" y="510" width="40" height="20" as="geometry" />
        </mxCell>
        <mxCell id="5yp8rKbDOKA8DRxwV9Yd-10" value="" style="endArrow=none;html=1;rounded=0;align=right;labelPosition=left;verticalLabelPosition=middle;verticalAlign=middle;" edge="1" parent="1">
          <mxGeometry width="50" height="50" relative="1" as="geometry">
            <mxPoint x="140" y="500" as="sourcePoint" />
            <mxPoint x="340" y="500" as="targetPoint" />
          </mxGeometry>
        </mxCell>
        <mxCell id="5yp8rKbDOKA8DRxwV9Yd-11" value="Pulse" style="text;html=1;align=right;verticalAlign=middle;whiteSpace=wrap;rounded=0;" vertex="1" parent="1">
          <mxGeometry x="50" y="490" width="40" height="20" as="geometry" />
        </mxCell>
        <mxCell id="5yp8rKbDOKA8DRxwV9Yd-12" value="5V" style="edgeStyle=none;orthogonalLoop=1;jettySize=auto;html=1;rounded=0;endArrow=none;startFill=0;fontStyle=1" edge="1" parent="1">
          <mxGeometry width="80" relative="1" as="geometry">
            <mxPoint x="120" y="200" as="sourcePoint" />
            <mxPoint x="760" y="200" as="targetPoint" />
            <Array as="points" />
          </mxGeometry>
        </mxCell>
        <mxCell id="5yp8rKbDOKA8DRxwV9Yd-13" value="GND" style="edgeStyle=none;orthogonalLoop=1;jettySize=auto;html=1;rounded=0;endArrow=none;startFill=0;fontStyle=1" edge="1" parent="1">
          <mxGeometry width="80" relative="1" as="geometry">
            <mxPoint x="120" y="760" as="sourcePoint" />
            <mxPoint x="760" y="760" as="targetPoint" />
            <Array as="points" />
          </mxGeometry>
        </mxCell>
        <mxCell id="5yp8rKbDOKA8DRxwV9Yd-18" value="" style="edgeStyle=none;orthogonalLoop=1;jettySize=auto;html=1;rounded=0;endArrow=none;startFill=0;" edge="1" parent="1">
          <mxGeometry width="80" relative="1" as="geometry">
            <mxPoint x="140" y="430" as="sourcePoint" />
            <mxPoint x="160" y="760" as="targetPoint" />
            <Array as="points">
              <mxPoint x="160" y="430" />
            </Array>
          </mxGeometry>
        </mxCell>
        <mxCell id="5yp8rKbDOKA8DRxwV9Yd-19" value="" style="edgeStyle=none;orthogonalLoop=1;jettySize=auto;html=1;rounded=0;endArrow=none;startFill=0;" edge="1" parent="1">
          <mxGeometry width="80" relative="1" as="geometry">
            <mxPoint x="340" y="380" as="sourcePoint" />
            <mxPoint x="320" y="200" as="targetPoint" />
            <Array as="points">
              <mxPoint x="320" y="380" />
            </Array>
          </mxGeometry>
        </mxCell>
        <mxCell id="5yp8rKbDOKA8DRxwV9Yd-20" value="" style="edgeStyle=none;orthogonalLoop=1;jettySize=auto;html=1;rounded=0;exitX=1;exitY=0.5;exitDx=0;exitDy=0;exitPerimeter=0;endArrow=none;startFill=0;" edge="1" parent="1" source="LTTtsXVFkvLHCN3D1B8W-84">
          <mxGeometry width="80" relative="1" as="geometry">
            <mxPoint x="750" y="550" as="sourcePoint" />
            <mxPoint x="640" y="760" as="targetPoint" />
            <Array as="points" />
          </mxGeometry>
        </mxCell>
        <mxCell id="5yp8rKbDOKA8DRxwV9Yd-21" value="" style="edgeStyle=none;orthogonalLoop=1;jettySize=auto;html=1;rounded=0;endArrow=none;startFill=0;" edge="1" parent="1">
          <mxGeometry width="80" relative="1" as="geometry">
            <mxPoint x="340" y="420" as="sourcePoint" />
            <mxPoint x="320" y="760" as="targetPoint" />
            <Array as="points">
              <mxPoint x="320" y="420" />
            </Array>
          </mxGeometry>
        </mxCell>
        <mxCell id="5yp8rKbDOKA8DRxwV9Yd-22" value="" style="pointerEvents=1;fillColor=#fff2cc;verticalLabelPosition=bottom;shadow=0;dashed=0;align=center;html=1;verticalAlign=top;shape=mxgraph.electrical.diodes.diode;strokeColor=#d6b656;" vertex="1" parent="1">
          <mxGeometry x="600" y="530" width="40" height="20" as="geometry" />
        </mxCell>
        <mxCell id="5yp8rKbDOKA8DRxwV9Yd-23" value="220" style="pointerEvents=1;verticalLabelPosition=middle;shadow=0;dashed=0;align=center;html=1;verticalAlign=middle;shape=mxgraph.electrical.resistors.resistor_1;labelPosition=center;fontSize=7;" vertex="1" parent="1">
          <mxGeometry x="560" y="535" width="40" height="10" as="geometry" />
        </mxCell>
        <mxCell id="5yp8rKbDOKA8DRxwV9Yd-24" style="edgeStyle=orthogonalEdgeStyle;rounded=0;orthogonalLoop=1;jettySize=auto;html=1;endArrow=none;startFill=0;" edge="1" source="5yp8rKbDOKA8DRxwV9Yd-23" parent="1">
          <mxGeometry relative="1" as="geometry">
            <mxPoint x="540" y="540" as="targetPoint" />
          </mxGeometry>
        </mxCell>
        <mxCell id="5yp8rKbDOKA8DRxwV9Yd-25" value="Poti" style="text;strokeColor=none;align=center;fillColor=none;html=1;verticalAlign=middle;whiteSpace=wrap;rounded=0;fontStyle=1" vertex="1" parent="1">
          <mxGeometry x="213" y="464" width="60" height="30" as="geometry" />
        </mxCell>
        <mxCell id="5yp8rKbDOKA8DRxwV9Yd-28" style="edgeStyle=none;rounded=0;orthogonalLoop=1;jettySize=auto;html=1;exitX=1;exitY=0.8;exitDx=0;exitDy=0;endArrow=none;startFill=0;" edge="1" parent="1" source="5yp8rKbDOKA8DRxwV9Yd-26">
          <mxGeometry relative="1" as="geometry">
            <mxPoint x="540" y="380" as="targetPoint" />
          </mxGeometry>
        </mxCell>
        <mxCell id="5yp8rKbDOKA8DRxwV9Yd-35" style="edgeStyle=none;rounded=0;orthogonalLoop=1;jettySize=auto;html=1;exitX=0;exitY=0.8;exitDx=0;exitDy=0;endArrow=none;startFill=0;" edge="1" parent="1" source="5yp8rKbDOKA8DRxwV9Yd-26">
          <mxGeometry relative="1" as="geometry">
            <mxPoint x="680.4054054054054" y="198.9189189189189" as="targetPoint" />
          </mxGeometry>
        </mxCell>
        <mxCell id="5yp8rKbDOKA8DRxwV9Yd-26" value="" style="html=1;shape=mxgraph.electrical.electro-mechanical.pushbutton;aspect=fixed;elSwitchState=off;direction=south;" vertex="1" parent="1">
          <mxGeometry x="677" y="318" width="16.67" height="62.52" as="geometry" />
        </mxCell>
        <mxCell id="5yp8rKbDOKA8DRxwV9Yd-36" style="edgeStyle=none;rounded=0;orthogonalLoop=1;jettySize=auto;html=1;exitX=1;exitY=0.5;exitDx=0;exitDy=0;exitPerimeter=0;endArrow=none;startFill=0;" edge="1" parent="1" source="5yp8rKbDOKA8DRxwV9Yd-30">
          <mxGeometry relative="1" as="geometry">
            <mxPoint x="680" y="760" as="targetPoint" />
          </mxGeometry>
        </mxCell>
        <mxCell id="5yp8rKbDOKA8DRxwV9Yd-30" value="220" style="pointerEvents=1;verticalLabelPosition=middle;shadow=0;dashed=0;align=center;html=1;verticalAlign=middle;shape=mxgraph.electrical.resistors.resistor_1;labelPosition=center;fontSize=7;direction=south;" vertex="1" parent="1">
          <mxGeometry x="675.33" y="383" width="10" height="40" as="geometry" />
        </mxCell>
        <mxCell id="5yp8rKbDOKA8DRxwV9Yd-33" style="edgeStyle=none;rounded=0;orthogonalLoop=1;jettySize=auto;html=1;exitX=1;exitY=0.8;exitDx=0;exitDy=0;entryX=0;entryY=0.5;entryDx=0;entryDy=0;entryPerimeter=0;endArrow=none;startFill=0;" edge="1" parent="1" source="5yp8rKbDOKA8DRxwV9Yd-26" target="5yp8rKbDOKA8DRxwV9Yd-30">
          <mxGeometry relative="1" as="geometry" />
        </mxCell>
        <mxCell id="5yp8rKbDOKA8DRxwV9Yd-37" value="Manual Launch" style="text;strokeColor=none;align=center;fillColor=none;html=1;verticalAlign=middle;whiteSpace=wrap;rounded=0;fontStyle=1" vertex="1" parent="1">
          <mxGeometry x="580" y="334.26" width="105.33" height="30" as="geometry" />
        </mxCell>
        <mxCell id="5yp8rKbDOKA8DRxwV9Yd-40" value="220" style="pointerEvents=1;verticalLabelPosition=middle;shadow=0;dashed=0;align=center;html=1;verticalAlign=middle;shape=mxgraph.electrical.resistors.resistor_1;labelPosition=center;fontSize=7;direction=south;" vertex="1" parent="1">
          <mxGeometry x="705.33" y="360" width="10" height="40" as="geometry" />
        </mxCell>
        <mxCell id="5yp8rKbDOKA8DRxwV9Yd-41" style="edgeStyle=none;rounded=0;orthogonalLoop=1;jettySize=auto;html=1;exitX=1;exitY=0.5;exitDx=0;exitDy=0;exitPerimeter=0;endArrow=none;startFill=0;" edge="1" source="5yp8rKbDOKA8DRxwV9Yd-40" parent="1">
          <mxGeometry relative="1" as="geometry">
            <mxPoint x="710" y="760" as="targetPoint" />
          </mxGeometry>
        </mxCell>
        <mxCell id="5yp8rKbDOKA8DRxwV9Yd-42" style="edgeStyle=none;rounded=0;orthogonalLoop=1;jettySize=auto;html=1;exitX=1;exitY=0.8;exitDx=0;exitDy=0;endArrow=none;startFill=0;" edge="1" source="5yp8rKbDOKA8DRxwV9Yd-43" parent="1">
          <mxGeometry relative="1" as="geometry">
            <mxPoint x="540" y="360" as="targetPoint" />
          </mxGeometry>
        </mxCell>
        <mxCell id="5yp8rKbDOKA8DRxwV9Yd-43" value="" style="html=1;shape=mxgraph.electrical.electro-mechanical.pushbutton;aspect=fixed;elSwitchState=off;direction=south;" vertex="1" parent="1">
          <mxGeometry x="707" y="298" width="16.67" height="62.52" as="geometry" />
        </mxCell>
        <mxCell id="5yp8rKbDOKA8DRxwV9Yd-44" style="edgeStyle=none;rounded=0;orthogonalLoop=1;jettySize=auto;html=1;exitX=0;exitY=0.8;exitDx=0;exitDy=0;endArrow=none;startFill=0;" edge="1" source="5yp8rKbDOKA8DRxwV9Yd-43" parent="1">
          <mxGeometry relative="1" as="geometry">
            <mxPoint x="710" y="200" as="targetPoint" />
          </mxGeometry>
        </mxCell>
        <mxCell id="5yp8rKbDOKA8DRxwV9Yd-45" value="Automatic Launch" style="text;strokeColor=none;align=center;fillColor=none;html=1;verticalAlign=middle;whiteSpace=wrap;rounded=0;fontStyle=1" vertex="1" parent="1">
          <mxGeometry x="735.33" y="314.26" width="124.67" height="30" as="geometry" />
        </mxCell>
        <mxCell id="5yp8rKbDOKA8DRxwV9Yd-51" value="Servo" style="whiteSpace=wrap;html=1;aspect=fixed;verticalAlign=top;fontStyle=1" vertex="1" parent="1">
          <mxGeometry x="40" y="360" width="80" height="80" as="geometry" />
        </mxCell>
        <mxCell id="5yp8rKbDOKA8DRxwV9Yd-52" value="" style="endArrow=none;html=1;rounded=0;align=right;labelPosition=left;verticalLabelPosition=middle;verticalAlign=middle;" edge="1" parent="1">
          <mxGeometry width="50" height="50" relative="1" as="geometry">
            <mxPoint x="100" y="430" as="sourcePoint" />
            <mxPoint x="140" y="430" as="targetPoint" />
          </mxGeometry>
        </mxCell>
        <mxCell id="5yp8rKbDOKA8DRxwV9Yd-53" value="" style="endArrow=oval;html=1;rounded=0;align=right;labelPosition=left;verticalLabelPosition=middle;verticalAlign=middle;endFill=1;" edge="1" parent="1">
          <mxGeometry width="50" height="50" relative="1" as="geometry">
            <mxPoint x="100" y="410" as="sourcePoint" />
            <mxPoint x="180" y="410" as="targetPoint" />
          </mxGeometry>
        </mxCell>
        <mxCell id="5yp8rKbDOKA8DRxwV9Yd-54" value="-" style="text;html=1;align=right;verticalAlign=middle;whiteSpace=wrap;rounded=0;" vertex="1" parent="1">
          <mxGeometry x="50" y="418" width="40" height="20" as="geometry" />
        </mxCell>
        <mxCell id="5yp8rKbDOKA8DRxwV9Yd-55" value="+" style="text;html=1;align=right;verticalAlign=middle;whiteSpace=wrap;rounded=0;" vertex="1" parent="1">
          <mxGeometry x="50" y="400" width="40" height="20" as="geometry" />
        </mxCell>
        <mxCell id="5yp8rKbDOKA8DRxwV9Yd-56" value="Pulse" style="text;html=1;align=right;verticalAlign=middle;whiteSpace=wrap;rounded=0;" vertex="1" parent="1">
          <mxGeometry x="50" y="380" width="40" height="20" as="geometry" />
        </mxCell>
        <mxCell id="5yp8rKbDOKA8DRxwV9Yd-58" value="" style="endArrow=none;html=1;rounded=0;align=right;labelPosition=left;verticalLabelPosition=middle;verticalAlign=middle;" edge="1" parent="1">
          <mxGeometry width="50" height="50" relative="1" as="geometry">
            <mxPoint x="100" y="390" as="sourcePoint" />
            <mxPoint x="140" y="390" as="targetPoint" />
          </mxGeometry>
        </mxCell>
        <mxCell id="5yp8rKbDOKA8DRxwV9Yd-59" value="Servo pull (front)" style="text;strokeColor=none;align=center;fillColor=none;html=1;verticalAlign=middle;whiteSpace=wrap;rounded=0;fontStyle=1" vertex="1" parent="1">
          <mxGeometry x="-30" y="385" width="60" height="30" as="geometry" />
        </mxCell>
        <mxCell id="5yp8rKbDOKA8DRxwV9Yd-60" value="Servo block (back)" style="text;strokeColor=none;align=center;fillColor=none;html=1;verticalAlign=middle;whiteSpace=wrap;rounded=0;fontStyle=1" vertex="1" parent="1">
          <mxGeometry x="-40" y="495" width="80" height="30" as="geometry" />
        </mxCell>
        <mxCell id="5yp8rKbDOKA8DRxwV9Yd-61" value="" style="endArrow=none;html=1;rounded=0;align=right;labelPosition=left;verticalLabelPosition=middle;verticalAlign=middle;" edge="1" parent="1">
          <mxGeometry width="50" height="50" relative="1" as="geometry">
            <mxPoint x="100" y="500" as="sourcePoint" />
            <mxPoint x="140" y="500" as="targetPoint" />
          </mxGeometry>
        </mxCell>
        <mxCell id="5yp8rKbDOKA8DRxwV9Yd-62" value="" style="edgeStyle=none;orthogonalLoop=1;jettySize=auto;html=1;rounded=0;endArrow=none;startFill=0;" edge="1" parent="1">
          <mxGeometry width="80" relative="1" as="geometry">
            <mxPoint x="140" y="389.6" as="sourcePoint" />
            <mxPoint x="340" y="520" as="targetPoint" />
            <Array as="points">
              <mxPoint x="200" y="390" />
              <mxPoint x="200" y="520" />
            </Array>
          </mxGeometry>
        </mxCell>
        <mxCell id="5yp8rKbDOKA8DRxwV9Yd-63" value="&lt;div&gt;Ultrasonic&lt;/div&gt;&lt;div&gt;Sensor&lt;/div&gt;" style="whiteSpace=wrap;html=1;verticalAlign=top;fontStyle=1" vertex="1" parent="1">
          <mxGeometry x="40" y="580" width="80" height="160" as="geometry" />
        </mxCell>
        <mxCell id="5yp8rKbDOKA8DRxwV9Yd-66" value="" style="endArrow=none;html=1;rounded=0;align=right;labelPosition=left;verticalLabelPosition=middle;verticalAlign=middle;" edge="1" parent="1">
          <mxGeometry width="50" height="50" relative="1" as="geometry">
            <mxPoint x="100" y="640" as="sourcePoint" />
            <mxPoint x="180" y="640" as="targetPoint" />
          </mxGeometry>
        </mxCell>
        <mxCell id="5yp8rKbDOKA8DRxwV9Yd-67" value="5V" style="text;html=1;align=right;verticalAlign=middle;whiteSpace=wrap;rounded=0;" vertex="1" parent="1">
          <mxGeometry x="50" y="630" width="40" height="20" as="geometry" />
        </mxCell>
        <mxCell id="5yp8rKbDOKA8DRxwV9Yd-68" value="" style="endArrow=none;html=1;rounded=0;align=right;labelPosition=left;verticalLabelPosition=middle;verticalAlign=middle;" edge="1" parent="1">
          <mxGeometry width="50" height="50" relative="1" as="geometry">
            <mxPoint x="100" y="660" as="sourcePoint" />
            <mxPoint x="340" y="560" as="targetPoint" />
            <Array as="points">
              <mxPoint x="200" y="660" />
              <mxPoint x="200" y="560" />
            </Array>
          </mxGeometry>
        </mxCell>
        <mxCell id="5yp8rKbDOKA8DRxwV9Yd-69" value="SDA" style="text;html=1;align=right;verticalAlign=middle;whiteSpace=wrap;rounded=0;" vertex="1" parent="1">
          <mxGeometry x="50" y="650" width="40" height="20" as="geometry" />
        </mxCell>
        <mxCell id="5yp8rKbDOKA8DRxwV9Yd-70" value="" style="endArrow=none;html=1;rounded=0;align=right;labelPosition=left;verticalLabelPosition=middle;verticalAlign=middle;" edge="1" parent="1">
          <mxGeometry width="50" height="50" relative="1" as="geometry">
            <mxPoint x="100" y="680" as="sourcePoint" />
            <mxPoint x="340" y="580" as="targetPoint" />
            <Array as="points">
              <mxPoint x="220" y="680" />
              <mxPoint x="220" y="580" />
            </Array>
          </mxGeometry>
        </mxCell>
        <mxCell id="5yp8rKbDOKA8DRxwV9Yd-71" value="SCL" style="text;html=1;align=right;verticalAlign=middle;whiteSpace=wrap;rounded=0;" vertex="1" parent="1">
          <mxGeometry x="50" y="670" width="40" height="20" as="geometry" />
        </mxCell>
        <mxCell id="5yp8rKbDOKA8DRxwV9Yd-72" value="" style="endArrow=none;html=1;rounded=0;align=right;labelPosition=left;verticalLabelPosition=middle;verticalAlign=middle;" edge="1" parent="1">
          <mxGeometry width="50" height="50" relative="1" as="geometry">
            <mxPoint x="100" y="700" as="sourcePoint" />
            <mxPoint x="140" y="700" as="targetPoint" />
          </mxGeometry>
        </mxCell>
        <mxCell id="5yp8rKbDOKA8DRxwV9Yd-73" value="NC" style="text;html=1;align=right;verticalAlign=middle;whiteSpace=wrap;rounded=0;" vertex="1" parent="1">
          <mxGeometry x="50" y="690" width="40" height="20" as="geometry" />
        </mxCell>
        <mxCell id="5yp8rKbDOKA8DRxwV9Yd-74" value="" style="endArrow=oval;html=1;rounded=0;align=right;labelPosition=left;verticalLabelPosition=middle;verticalAlign=middle;endFill=1;" edge="1" parent="1">
          <mxGeometry width="50" height="50" relative="1" as="geometry">
            <mxPoint x="100" y="720" as="sourcePoint" />
            <mxPoint x="160" y="720" as="targetPoint" />
          </mxGeometry>
        </mxCell>
        <mxCell id="5yp8rKbDOKA8DRxwV9Yd-75" value="GND" style="text;html=1;align=right;verticalAlign=middle;whiteSpace=wrap;rounded=0;" vertex="1" parent="1">
          <mxGeometry x="50" y="710" width="40" height="20" as="geometry" />
        </mxCell>
        <mxCell id="5yp8rKbDOKA8DRxwV9Yd-77" value="" style="edgeStyle=none;orthogonalLoop=1;jettySize=auto;html=1;rounded=0;endArrow=none;startFill=0;" edge="1" parent="1">
          <mxGeometry width="80" relative="1" as="geometry">
            <mxPoint x="180" y="640" as="sourcePoint" />
            <mxPoint x="180" y="200" as="targetPoint" />
            <Array as="points" />
          </mxGeometry>
        </mxCell>
      </root>
    </mxGraphModel>
  </diagram>
</mxfile>
